<?xml version="1.0" standalone="no"?>
<!DOCTYPE svg PUBLIC "-//W3C//DTD SVG 1.0//EN" "http://www.w3.org/TR/2001/REC-SVG-20010904/DTD/svg10.dtd">
<svg xmlns="http://www.w3.org/2000/svg" xmlns:xlink="http://www.w3.org/1999/xlink" id="body_1" width="72" height="72">

<g transform="matrix(0.18 0 0 0.18 0 0)">
	<g>
        <path d="M191.712 53.771C 188.869 54.18 187.586 54.581 186.112 55.521C 185.06 56.192 182.85 57.381 181.2 58.163C 175.409 60.907 167.333 68.748 164.76 74.124C 164.108 75.486 162.966 77.556 162.222 78.724C 161.402 80.011 160.611 82.011 160.213 83.799C 159.852 85.422 159.117 87.617 158.579 88.675C 156.36 93.045 155.546 99.35 154.808 117.896C 154.272 131.351 151.654 146.975 149.202 151.347C 148.569 152.476 147.658 154.48 147.178 155.8C 146.697 157.12 145.715 158.83 144.995 159.6C 144.274 160.37 143.318 161.735 142.869 162.632C 142.42 163.53 141.428 164.741 140.664 165.324C 139.901 165.906 138.893 167.003 138.424 167.761C 137.956 168.519 137.05 169.47 136.41 169.875C 135.771 170.28 134.826 171.238 134.312 172.005C 133.797 172.772 132.738 173.744 131.959 174.165C 131.18 174.585 130.151 175.528 129.671 176.26C 129.191 176.992 128.081 178.044 127.203 178.598C 126.326 179.152 125.138 180.315 124.564 181.183C 123.99 182.051 123.089 183.043 122.563 183.387C 122.037 183.732 121.166 184.866 120.628 185.907C 120.09 186.948 119.193 188.318 118.635 188.951C 117.702 190.009 116 193.832 116 194.871C 116 195.113 115.417 197.131 114.704 199.356C 112.821 205.233 112.807 212.615 114.664 220C 115.356 222.75 116.138 225.947 116.402 227.105C 116.666 228.262 117.276 229.792 117.758 230.505C 118.239 231.217 119.2 232.79 119.892 234C 123.038 239.497 128.558 243.273 136.2 245.155C 147.359 247.904 152.611 246.171 151.645 240.058C 151.097 236.59 150.518 236.259 144.496 235.974C 134.749 235.512 127.711 229.281 124.873 218.6C 123.299 212.678 124.16 201.581 126.458 198.176C 127.097 197.229 128.046 195.497 128.567 194.327C 129.671 191.845 132.377 188.746 137.6 183.984C 141.992 179.98 146.8 175.18 146.8 174.8C 146.8 174.586 147.504 173.946 148.363 173.377C 149.223 172.808 150.155 171.791 150.434 171.117C 150.713 170.444 151.608 169.05 152.423 168.019C 153.237 166.988 154.66 164.808 155.583 163.173C 156.507 161.538 157.594 159.84 157.998 159.4C 158.402 158.96 159.111 156.98 159.573 155C 160.035 153.02 161.038 149.933 161.802 148.14C 163.714 143.655 163.972 141.414 164.399 125.6C 164.806 110.486 165.26 105.338 166.47 102.104C 166.908 100.934 167.775 97.475 168.396 94.419C 169.265 90.143 169.854 88.276 170.952 86.312C 171.737 84.909 172.63 83.05 172.937 82.181C 173.767 79.831 179.398 72.523 181.504 71.06C 182.503 70.367 184.011 69.23 184.857 68.534C 185.702 67.838 187.25 66.962 188.297 66.587C 189.344 66.212 191.809 65.275 193.775 64.505C 198.359 62.708 204.273 62.696 207.8 64.476C 208.9 65.031 211.119 65.88 212.732 66.364C 214.82 66.989 216.144 67.682 217.332 68.768C 218.249 69.607 219.577 70.587 220.281 70.947C 220.986 71.307 222.092 72.366 222.739 73.301C 223.386 74.235 224.407 75.45 225.009 76C 225.61 76.55 226.596 78.08 227.199 79.4C 227.802 80.72 228.922 82.721 229.686 83.848C 230.594 85.186 231.38 87.107 231.953 89.393C 232.435 91.317 233.169 93.556 233.584 94.369C 235.623 98.365 235.956 101.36 236.415 119.8C 236.82 136.031 237.03 138.166 238.566 141.6C 239.107 142.81 239.918 146.001 240.368 148.691C 241.062 152.838 241.455 154.087 242.951 156.891C 243.921 158.711 244.919 160.848 245.169 161.64C 245.418 162.432 246.259 163.782 247.037 164.64C 247.815 165.498 248.971 167.211 249.604 168.446C 250.462 170.117 252.683 172.599 258.278 178.139C 271.113 190.848 271.61 191.361 272.517 192.857C 273.003 193.658 273.897 195.02 274.505 195.885C 277.906 200.718 277.623 222.468 274.118 225.727C 273.601 226.207 272.567 227.59 271.819 228.8C 271.071 230.01 269.861 231.348 269.13 231.773C 268.398 232.198 267.136 233.074 266.325 233.719C 264.562 235.123 261.224 235.985 257.52 235.994C 251.401 236.008 250.121 236.724 249.743 240.346C 249.432 243.313 249.902 244.026 253.111 245.458C 257.787 247.544 271.04 245.017 274.4 241.399C 274.95 240.807 276.075 239.976 276.9 239.553C 277.739 239.123 278.865 238.038 279.454 237.092C 280.033 236.161 281.097 234.85 281.818 234.178C 282.775 233.287 283.368 232.153 284.012 229.978C 284.498 228.34 285.308 226.274 285.813 225.387C 289.137 219.55 289.253 202.763 286.019 195.6C 285.175 193.73 284.182 191.257 283.812 190.105C 283.423 188.896 282.698 187.663 282.096 187.189C 281.522 186.738 280.705 185.798 280.281 185.1C 279.857 184.402 277.194 181.575 274.363 178.816C 260.696 165.495 258.928 163.557 257.178 159.988C 256.481 158.565 255.491 156.95 254.979 156.4C 254.468 155.85 253.525 153.78 252.884 151.8C 252.243 149.82 251.318 147.415 250.829 146.456C 248.976 142.826 248.185 136.056 247.597 118.8C 247.297 110.016 247.022 106.528 246.397 103.6C 245.951 101.51 245.065 96.858 244.429 93.261C 243.475 87.87 243.058 86.379 242.053 84.763C 241.383 83.685 240.447 81.497 239.973 79.901C 239.398 77.966 238.507 76.201 237.298 74.6C 236.301 73.28 235.147 71.445 234.733 70.522C 234.32 69.598 233.388 68.338 232.663 67.722C 231.938 67.105 230.937 66.011 230.439 65.291C 229.94 64.571 228.873 63.642 228.066 63.228C 227.26 62.813 226.06 61.905 225.4 61.209C 224.139 59.881 220.896 57.889 219.2 57.402C 218.65 57.244 217.367 56.589 216.348 55.946C 212.683 53.635 200.278 52.539 191.712 53.771M251.366 214.845C 249.249 215.028 246.829 215.523 245.566 216.03C 244.375 216.508 241.96 217.305 240.2 217.799C 236.072 218.959 234.499 219.633 232.435 221.128C 231.51 221.798 230.229 222.462 229.587 222.603C 228.851 222.765 226.999 224.263 224.561 226.669C 221.725 229.468 219.999 230.817 218.051 231.756C 216.593 232.459 214.59 233.507 213.6 234.086C 208.931 236.816 191.851 236.742 187.965 233.975C 187.3 233.502 185.481 232.494 183.922 231.735C 181.917 230.759 180.061 229.367 177.571 226.972C 175.544 225.022 173.221 223.202 172.092 222.679C 171.013 222.179 169.42 221.208 168.553 220.521C 167.453 219.65 165.949 219.024 163.588 218.456C 161.724 218.007 158.58 217.076 156.6 216.386C 153.708 215.379 152.125 215.089 148.55 214.912L148.55 214.912L144.1 214.693L141.859 217.046C 139.273 219.761 139.177 220.27 140.778 222.766C 142.477 225.413 143.485 225.851 148.57 226.147C 154.856 226.513 157.946 227.112 159.8 228.327C 160.68 228.904 162.21 229.758 163.2 230.226C 164.19 230.694 165.99 231.929 167.2 232.971C 168.41 234.012 170.128 235.295 171.017 235.822C 171.906 236.348 173.046 237.336 173.55 238.018C 174.054 238.699 175.269 239.601 176.251 240.022C 177.233 240.443 178.614 241.228 179.32 241.766C 181.025 243.066 182.009 243.417 188.6 245.077C 198.978 247.69 203.215 247.478 219.305 243.535C 220.133 243.332 221.393 242.658 222.105 242.036C 222.817 241.414 224.3 240.446 225.4 239.884C 226.5 239.323 228.472 237.949 229.783 236.832C 231.093 235.714 232.317 234.8 232.502 234.8C 232.687 234.8 233.722 233.916 234.803 232.835C 235.883 231.755 237.277 230.759 237.9 230.622C 238.523 230.485 240.068 229.67 241.334 228.811C 244.009 226.996 245.871 226.545 252.615 226.08C 258.898 225.646 260.311 225.01 261.329 222.158C 263.146 217.07 259.192 214.168 251.366 214.845" stroke="none" fill="#3F6681" fill-rule="nonzero" />
        <path d="M169.6 1.157C 169.6 2.823 167.546 3.512 160.444 4.227C 153.519 4.925 151.333 5.37 148.438 6.673C 147.249 7.208 144.53 8.059 142.395 8.563C 140.261 9.067 137.364 10.063 135.957 10.776C 133.138 12.205 130.737 12.995 128 13.397C 126.412 13.63 117.854 17.443 114 19.636C 112.525 20.475 109.762 21.783 106.868 23.014C 105.916 23.419 104.577 24.239 103.893 24.836C 103.209 25.433 101.918 26.155 101.025 26.44C 98.975 27.094 98.038 27.669 94.756 30.289C 93.301 31.45 91.934 32.4 91.718 32.4C 91.501 32.4 91.016 32.74 90.64 33.156C 90.264 33.572 88.804 34.479 87.397 35.172C 85.99 35.864 84.335 36.973 83.719 37.634C 83.104 38.296 82.059 39.098 81.398 39.418C 80.737 39.737 79.056 40.993 77.661 42.209C 76.267 43.425 74.551 44.66 73.848 44.954C 73.146 45.248 71.947 46.154 71.185 46.968C 70.423 47.782 69.125 48.83 68.3 49.297C 67.475 49.765 66.8 50.283 66.8 50.449C 66.8 50.614 65.244 52.246 63.343 54.075C 61.442 55.904 59.327 58.024 58.643 58.786C 57.959 59.549 56.872 60.629 56.227 61.186C 55.581 61.744 54.591 62.7 54.027 63.311C 53.462 63.921 52.28 65.166 51.4 66.076C 50.52 66.987 49.53 68.132 49.2 68.621C 48.87 69.11 46.927 71.302 44.881 73.493C 42.512 76.031 40.753 78.333 40.034 79.838C 39.413 81.137 38.419 82.648 37.825 83.196C 37.231 83.743 36.182 85.247 35.494 86.537C 34.807 87.828 33.845 89.145 33.358 89.464C 32.871 89.783 31.987 91.069 31.395 92.322C 30.802 93.575 29.628 95.347 28.786 96.261C 27.944 97.174 26.863 98.784 26.383 99.837C 25.903 100.89 25.077 102.408 24.546 103.21C 24.016 104.011 23.237 105.873 22.815 107.347C 22.394 108.82 21.427 110.875 20.666 111.913C 19.906 112.951 18.723 115.255 18.038 117.033C 17.353 118.812 16.358 120.676 15.826 121.175C 15.26 121.708 14.668 122.935 14.397 124.142C 13.679 127.332 12.384 131.21 11.337 133.301C 10.814 134.346 10.018 136.866 9.569 138.901C 8.709 142.795 7.881 145.141 6.78 146.8C 5.937 148.07 5.782 148.734 4.373 157.094C 3.09 164.705 2.746 165.6 1.104 165.6L1.104 165.6L0 165.6L0 199.72C 0 235.163 -0.017 234.8 1.613 234.8C 2.505 234.8 4.409 242.219 5.164 248.636C 5.38 250.47 6.01 252.607 6.949 254.687C 7.747 256.455 8.514 258.508 8.654 259.251C 8.794 259.993 9.607 262.67 10.462 265.2C 11.317 267.73 12.476 271.33 13.038 273.2C 13.599 275.07 14.596 277.68 15.254 279C 15.911 280.32 17.001 282.75 17.676 284.4C 18.351 286.05 19.405 288.046 20.019 288.836C 20.633 289.626 21.666 291.641 22.316 293.313C 22.965 294.986 24.027 297.04 24.675 297.877C 25.323 298.715 26.162 300.231 26.54 301.247C 26.917 302.263 28.165 304.336 29.313 305.853C 30.461 307.37 31.749 309.419 32.176 310.406C 32.602 311.392 33.59 313.003 34.371 313.983C 35.151 314.964 36.125 316.404 36.534 317.183C 36.943 317.963 37.71 319.012 38.239 319.516C 38.768 320.02 39.548 321.1 39.972 321.916C 40.397 322.732 41.657 324.387 42.772 325.593C 43.887 326.8 44.8 327.948 44.8 328.145C 44.8 328.341 46.503 330.234 48.585 332.351C 50.666 334.468 53.051 337.113 53.885 338.23C 56.09 341.184 59.112 344.27 61.4 345.904C 62.5 346.69 64.75 348.7 66.4 350.37C 70.944 354.97 77.166 360.376 78.22 360.641C 78.736 360.77 79.43 361.291 79.762 361.798C 80.095 362.306 81.949 363.647 83.883 364.78C 87.457 366.872 93.917 371.255 94.358 371.887C 94.491 372.078 95.86 372.827 97.4 373.552C 98.94 374.276 100.787 375.315 101.505 375.859C 102.223 376.403 103.769 377.273 104.941 377.791C 106.113 378.309 108.316 379.52 109.836 380.482C 111.356 381.443 113.32 382.473 114.2 382.769C 115.08 383.066 116.255 383.628 116.81 384.018C 117.366 384.408 119.616 385.302 121.81 386.004C 124.005 386.707 126.966 387.913 128.39 388.683C 129.815 389.454 132.414 390.447 134.166 390.89C 135.918 391.333 138.719 392.28 140.389 392.995C 143.442 394.302 146.642 395.084 153.507 396.2C 157.874 396.91 158.8 397.382 158.8 398.896L158.8 398.896L158.8 400L200.2 400L241.6 400L241.6 399.043C 241.6 397.761 243.616 396.971 247.8 396.613C 251.803 396.27 256.492 395.049 258.651 393.788C 259.559 393.258 261.945 392.458 263.954 392.01C 268.536 390.99 271.546 389.953 275.051 388.187C 276.563 387.425 278.038 386.802 278.329 386.801C 279.148 386.799 291.613 380.763 292.8 379.794C 293.13 379.524 294.57 378.799 296 378.183C 297.43 377.566 299.5 376.4 300.6 375.591C 301.7 374.782 303.41 373.809 304.4 373.428C 305.39 373.048 306.56 372.416 307 372.025C 307.44 371.634 308.953 370.543 310.362 369.6C 311.771 368.658 313.571 367.311 314.362 366.608C 315.153 365.904 316.762 364.812 317.937 364.181C 319.112 363.55 320.372 362.664 320.737 362.213C 321.102 361.763 322.454 360.765 323.741 359.997C 325.029 359.229 326.481 358.131 326.967 357.558C 327.453 356.985 328.829 355.849 330.025 355.035C 332.505 353.347 333.354 352.574 337.8 347.963C 339.56 346.137 341.892 343.824 342.983 342.822C 347.477 338.693 353.001 332.872 355.123 330.03C 356.367 328.363 357.885 326.49 358.495 325.866C 359.106 325.243 360.062 323.953 360.621 323.001C 361.179 322.048 362.039 321.004 362.532 320.681C 363.025 320.358 364.029 318.948 364.763 317.547C 365.497 316.146 366.536 314.479 367.071 313.843C 367.606 313.207 368.484 311.818 369.021 310.758C 369.559 309.697 370.515 308.238 371.146 307.515C 371.778 306.792 372.758 305.281 373.325 304.157C 373.892 303.033 374.827 301.554 375.402 300.87C 375.978 300.186 376.89 298.502 377.428 297.129C 377.966 295.755 378.934 294.084 379.579 293.416C 380.823 292.125 382.079 289.517 382.809 286.708C 383.053 285.768 383.795 284.231 384.457 283.292C 385.119 282.353 385.998 280.407 386.409 278.968C 386.821 277.528 387.515 275.687 387.951 274.875C 389.93 271.193 390.543 269.601 391.044 266.837C 391.377 264.999 392.197 262.668 393.203 260.699C 394.582 258.002 394.944 256.742 395.612 252.323C 396.678 245.264 397.63 243.224 399.702 243.553C 399.868 243.58 399.958 225.016 399.902 202.301L399.902 202.301L399.8 161L398.899 160.872C 397.456 160.667 395.624 155.001 395.586 150.62C 395.564 148.106 394.639 144.811 393.278 142.398C 392.477 140.979 391.823 138.995 391.433 136.8C 390.608 132.163 390.314 131.318 388.707 128.945C 387.771 127.563 387.224 126.203 387.036 124.79C 386.771 122.789 385.517 119.72 383.517 116.176C 383.013 115.283 382.261 113.753 381.846 112.776C 381.431 111.799 380.773 110.64 380.384 110.2C 379.42 109.11 377.6 105.773 377.6 105.095C 377.6 104.792 376.893 103.597 376.029 102.439C 375.166 101.282 373.981 99.142 373.398 97.684C 372.814 96.226 371.812 94.436 371.171 93.706C 370.53 92.975 369.652 91.708 369.221 90.889C 368.79 90.07 367.716 88.612 366.834 87.649C 365.952 86.687 364.757 84.977 364.179 83.849C 363.6 82.722 362.547 81.256 361.84 80.59C 361.132 79.925 360.125 78.62 359.603 77.69C 359.08 76.761 358.521 76 358.36 76C 358.2 76 357.387 75.055 356.553 73.9C 354.253 70.71 338.124 54.121 336.359 53.129C 335.507 52.65 334.692 51.891 334.55 51.442C 334.124 50.101 330.006 46.062 327.533 44.559C 326.263 43.788 324.894 42.738 324.491 42.225C 324.088 41.713 322.857 40.837 321.754 40.278C 320.652 39.719 319.506 38.969 319.208 38.61C 318.91 38.251 317.392 37.22 315.833 36.319C 314.275 35.418 312.066 33.808 310.924 32.74C 309.782 31.673 308.682 30.8 308.479 30.8C 308.276 30.8 307.41 30.237 306.555 29.548C 305.7 28.86 303.802 27.718 302.339 27.01C 300.875 26.302 299.008 25.17 298.189 24.495C 297.371 23.821 295.389 22.803 293.785 22.233C 292.181 21.664 290.162 20.735 289.298 20.17C 288.434 19.604 286.237 18.62 284.417 17.982C 282.596 17.345 280.503 16.363 279.765 15.801C 278.983 15.204 277.459 14.604 276.112 14.362C 272.548 13.723 268.606 12.476 267.552 11.655C 265.875 10.348 264.268 9.713 261.4 9.226C 259.86 8.964 256.98 8.06 255 7.217C 250.573 5.331 249.029 4.917 245.2 4.589C 242.029 4.317 236.411 3.407 233.9 2.757C 232.592 2.419 232.4 2.218 232.4 1.185L232.4 1.185L232.4 0L201 0L169.6 0L169.6 1.157zM204.518 49.209C 206.012 49.425 207.949 49.966 208.821 50.411C 209.693 50.855 212.116 51.571 214.207 52.001C 218.307 52.845 219.539 53.353 221.4 54.964C 222.06 55.535 223.547 56.396 224.705 56.877C 226.162 57.482 227.053 58.163 227.598 59.087C 228.098 59.933 229.04 60.703 230.172 61.188C 231.408 61.718 232.179 62.383 232.678 63.351C 233.075 64.121 234.025 65.17 234.79 65.684C 235.719 66.309 236.321 67.121 236.606 68.138C 236.86 69.043 237.692 70.268 238.663 71.164C 240.149 72.536 242 76.187 242 77.745C 242 78.029 242.437 78.671 242.971 79.172C 244.282 80.405 245.429 83.465 246.203 87.8C 246.556 89.78 247.203 92.095 247.639 92.944C 249.443 96.452 249.661 98.346 250.038 113.8C 250.526 133.759 250.759 136.352 252.343 139.4C 253.203 141.056 253.78 143.01 254.206 145.704C 254.954 150.44 255.233 151.212 256.957 153.338C 257.698 154.252 258.597 156.024 258.956 157.276C 259.424 158.907 259.943 159.79 260.792 160.394C 261.442 160.857 262.739 162.398 263.672 163.818C 264.606 165.238 265.497 166.4 265.654 166.4C 265.81 166.4 267.797 168.224 270.069 170.453C 272.341 172.682 275.354 175.467 276.764 176.642C 280.248 179.544 285.463 186.006 286.035 188.13C 286.282 189.046 287.085 190.461 287.82 191.275C 290.211 193.922 291.017 201.584 290.398 215.8C 289.999 224.976 289.666 226.764 287.999 228.663C 287.389 229.357 286.495 231.157 286.013 232.663C 285.368 234.674 284.734 235.771 283.624 236.8C 282.793 237.57 281.787 238.772 281.388 239.47C 280.989 240.169 279.991 241.043 279.17 241.413C 278.35 241.783 277.256 242.723 276.739 243.502C 275.976 244.653 275.231 245.117 272.767 245.977C 271.099 246.559 269.234 247.43 268.621 247.912C 266.402 249.658 258.972 250.506 253.698 249.617C 248.929 248.812 246.602 245.189 247.208 239.51C 247.707 234.833 248.656 234.197 255.8 233.749C 259.272 233.531 260.03 233.349 261.537 232.37C 262.493 231.749 264.524 230.751 266.05 230.153L266.05 230.153L268.825 229.064L270.397 225.832C 271.261 224.054 272.367 222.11 272.855 221.51C 275.562 218.181 274.923 200.6 271.992 197.792C 271.282 197.112 270.581 195.885 270.328 194.879C 269.991 193.542 269.546 192.924 268.403 192.202C 267.586 191.686 266.542 190.629 266.084 189.853C 265.626 189.077 264.524 188.071 263.632 187.616C 262.603 187.092 261.731 186.241 261.246 185.29C 260.719 184.257 260.039 183.63 259.061 183.277C 258.017 182.899 257.459 182.349 256.951 181.197C 256.445 180.052 255.858 179.47 254.767 179.033C 253.68 178.598 253.088 178.015 252.59 176.887C 252.138 175.862 251.306 174.975 250.132 174.266C 248.949 173.551 248.148 172.694 247.731 171.697C 247.388 170.874 246.564 169.582 245.901 168.826C 244.601 167.345 242.81 163.82 242.804 162.729C 242.802 162.36 242.383 161.73 241.874 161.329C 240.238 160.04 239.673 158.695 238.802 154C 238.229 150.917 237.637 148.938 237.006 148C 234.907 144.878 234.724 143.375 234.38 126.4C 233.965 105.96 233.878 104.889 232.424 102.273C 231.309 100.269 230.715 97.991 230.214 93.8C 229.724 89.692 229.182 88.139 227.756 86.758C 226.862 85.891 226.148 84.656 225.751 83.29C 225.339 81.872 224.434 80.342 223.028 78.684C 221.87 77.318 220.633 75.64 220.28 74.956C 219.85 74.123 218.882 73.342 217.35 72.593C 216.092 71.978 214.387 70.864 213.562 70.118C 209.177 66.156 190.473 66.365 187.594 70.408C 187.121 71.073 186.127 71.87 185.387 72.18C 183.577 72.936 179.572 76.994 178.681 78.976C 178.285 79.855 177.428 81.03 176.777 81.587C 175.888 82.347 175.342 83.451 174.592 86C 174.042 87.87 173.229 89.85 172.785 90.4C 171.178 92.392 170.711 94.214 169.97 101.39C 169.56 105.355 169.026 109.77 168.783 111.2C 168.54 112.63 168.183 115.96 167.989 118.6C 167.795 121.24 167.366 125.92 167.036 129C 166.706 132.08 166.246 137.634 166.013 141.343C 165.516 149.259 165.133 151.057 163.578 152.76C 162.393 154.057 161.799 155.72 161.195 159.434C 160.761 162.095 160.238 163.108 158.576 164.504C 157.755 165.193 157.008 166.372 156.585 167.644C 156.086 169.148 155.565 169.884 154.594 170.457C 153.87 170.884 153.167 171.679 153.03 172.224C 152.823 173.05 150.571 175.448 145 180.777C 144.56 181.198 143.781 182.095 143.27 182.771C 142.758 183.447 141.902 184.11 141.368 184.244C 140.783 184.391 140.133 185.042 139.736 185.879C 139.291 186.816 138.5 187.551 137.316 188.125C 135.978 188.776 135.376 189.391 134.798 190.698C 134.356 191.697 133.532 192.705 132.827 193.108C 131.548 193.839 130.283 196.252 129.79 198.901C 129.636 199.727 128.995 201.051 128.365 201.843C 126.066 204.737 125.857 212.201 127.954 216.506C 128.965 218.581 130.354 223.349 130.393 224.875C 130.416 225.772 135.293 230.08 136.911 230.632C 137.905 230.97 139.036 231.598 139.423 232.026C 140.316 233.012 142.12 233.47 146.4 233.796C 150.862 234.136 151.958 234.514 153.723 236.321C 156.162 238.818 156.599 243.623 154.49 244.752C 154.079 244.972 153.227 245.895 152.597 246.804C 151.968 247.712 150.93 248.726 150.292 249.056C 147.488 250.506 136.037 250.043 134 248.397C 132.7 247.347 131.134 246.639 128.309 245.825C 126.435 245.285 125.718 244.809 124.367 243.207C 123.459 242.13 122.191 241.066 121.55 240.842C 120.903 240.617 120.075 239.864 119.692 239.154C 119.311 238.449 118.163 236.928 117.139 235.775C 115.136 233.517 115.137 233.52 114.23 229.525C 113.896 228.053 113.093 225.983 112.445 224.925C 110.42 221.615 109.499 211.744 110.367 202.655C 110.838 197.717 111.094 196.864 112.607 195.2C 113.156 194.596 113.85 192.852 114.359 190.8C 115.112 187.762 115.388 187.23 116.952 185.8C 117.915 184.92 118.931 183.604 119.21 182.876C 119.489 182.147 120.331 181.083 121.082 180.51C 121.833 179.938 122.717 178.947 123.048 178.308C 123.392 177.641 124.31 176.86 125.203 176.473C 126.059 176.103 127.179 175.17 127.693 174.4C 128.207 173.63 129.293 172.685 130.105 172.301C 131.074 171.842 131.869 171.042 132.413 169.975C 132.869 169.08 133.87 167.978 134.636 167.526C 135.403 167.073 136.279 166.106 136.585 165.375C 136.946 164.509 137.704 163.759 138.763 163.219C 139.871 162.654 140.471 162.042 140.651 161.295C 141.067 159.567 142.668 156.594 143.923 155.22C 144.741 154.325 145.291 153.033 145.836 150.735C 146.256 148.959 147.001 146.853 147.492 146.053C 149.983 141.993 150.291 139.722 150.621 123C 150.886 109.561 151.247 105.577 152.588 101.299C 153.122 99.595 153.841 95.919 154.186 93.131C 154.888 87.461 155.584 85.086 156.978 83.606C 157.557 82.991 158.277 81.278 158.829 79.2C 159.592 76.335 159.975 75.578 161.267 74.391C 162.11 73.616 162.804 72.716 162.809 72.391C 162.841 70.19 165.409 66.972 173.007 59.607C 174.5 58.16 178.364 56.013 179.491 56.004C 179.761 56.002 180.266 55.566 180.614 55.034C 181.437 53.778 183.003 53.078 187.358 52.021C 189.315 51.546 191.642 50.787 192.529 50.334C 193.587 49.794 195.391 49.408 197.771 49.213C 199.767 49.048 201.49 48.892 201.6 48.865C 201.71 48.838 203.023 48.993 204.518 49.209M159.965 213.169C 160.716 213.396 162.02 214.06 162.864 214.644C 163.707 215.228 165.605 216.042 167.082 216.451C 168.655 216.887 170.354 217.691 171.184 218.391C 171.963 219.048 173.77 220.226 175.2 221.009C 176.855 221.915 178.2 223.01 178.901 224.023C 179.507 224.898 180.635 225.916 181.407 226.284C 182.18 226.652 183.141 227.504 183.543 228.177C 184.16 229.208 184.802 229.55 187.637 230.356C 189.487 230.882 191.72 231.772 192.6 232.335C 194.095 233.292 194.594 233.37 200.203 233.525L200.203 233.525L206.205 233.692L208.806 232.263C 210.236 231.476 212.395 230.624 213.603 230.369C 216.568 229.742 217.046 229.45 220.59 226.095C 224.662 222.241 226.381 220.904 227.668 220.59C 228.255 220.447 229.289 219.721 229.965 218.978C 230.907 217.943 231.977 217.389 234.542 216.606C 236.383 216.045 238.214 215.227 238.61 214.789C 241.013 212.134 259.054 211.383 261.947 213.817C 263.423 215.058 264.214 218.543 263.867 222.266C 263.417 227.081 262.151 227.887 254.245 228.391C 248.646 228.748 247.338 229.076 245.565 230.568C 244.929 231.103 242.951 231.908 241.009 232.421C 237.842 233.257 237.527 233.434 236.923 234.706C 236.473 235.653 235.753 236.306 234.621 236.791C 233.715 237.179 232.473 238.153 231.862 238.954C 231.251 239.756 229.895 240.845 228.85 241.375C 227.805 241.904 226.705 242.632 226.407 242.992C 225.479 244.11 222.71 245.5 220.109 246.153C 218.738 246.497 216.894 247.235 216.011 247.793C 211.336 250.744 189.426 250.744 185.919 247.793C 185.27 247.247 184.257 246.696 183.669 246.569C 180.289 245.841 177.007 244.636 176.259 243.848C 175.786 243.351 174.5 242.333 173.4 241.586C 172.3 240.839 170.68 239.579 169.8 238.787C 168.92 237.995 167.383 236.879 166.385 236.306C 165.387 235.734 164.328 234.813 164.032 234.26C 163.469 233.208 162.329 232.629 160.042 232.232C 159.295 232.103 157.199 231.275 155.384 230.392C 152.32 228.902 151.728 228.761 147.054 228.404C 139.965 227.863 138.201 226.908 137.157 223.048C 136.04 218.914 137.592 214.946 140.962 213.325C 143.166 212.265 156.604 212.155 159.965 213.169M201.145 267.8C 202.265 268.57 203.341 269.2 203.536 269.2C 204.432 269.2 205.992 270.952 206.231 272.226C 206.395 273.097 206.979 274.027 207.791 274.709C 209.536 276.174 209.835 276.846 210.603 281.022C 210.965 282.99 211.672 285.77 212.174 287.2C 213.798 291.824 213.79 298.517 212.158 301.008C 211.84 301.493 211.304 303.22 210.968 304.845C 209.966 309.68 209.199 311.939 208.127 313.214C 207.555 313.894 206.715 315.85 206.196 317.709C 205.692 319.519 204.722 322.322 204.041 323.938C 202.634 327.276 202.666 328.886 204.2 332C 206.586 336.845 207.376 345.72 205.737 349.266C 202.94 355.318 192.239 354.019 189.586 347.305C 189.085 346.037 188.267 344.445 187.768 343.767C 184.036 338.693 184.274 314.798 188.097 310.673C 188.658 310.068 189.24 308.913 189.391 308.106C 189.743 306.232 190.997 303.756 192.422 302.122C 194.396 299.859 194.687 288.738 192.833 286.457C 188.562 281.204 188.36 272.052 192.47 269.971C 193.421 269.489 194.876 268.488 195.701 267.747C 197.599 266.044 198.607 266.054 201.145 267.8M235.709 267.948C 236.639 268.799 237.85 269.631 238.4 269.797C 239.95 270.263 240.44 270.815 241.603 273.4C 242.197 274.72 243.254 276.697 243.951 277.794C 247.822 283.879 247.595 303.697 243.577 310.412C 242.718 311.848 241.77 313.837 241.471 314.832C 241.171 315.826 240.178 317.791 239.263 319.199L239.263 319.199L237.6 321.759L237.6 327.182C 237.6 333.366 237.877 334.698 239.559 336.614C 241.538 338.868 242.146 345.437 240.656 348.474C 238.018 353.854 228.034 354.79 225.55 349.892C 225.078 348.961 224.154 347.583 223.496 346.829C 221.835 344.926 221.318 343.496 220.8 339.371C 220.553 337.407 220.086 333.938 219.762 331.662C 218.892 325.539 220.733 312.839 223.032 309.102C 223.81 307.839 224.875 305.589 225.4 304.102C 227.142 299.169 227.624 297.914 228.215 296.772C 229.031 295.193 228.957 292.063 228.068 290.6C 225.999 287.195 224.189 279.441 224.488 275.264C 224.746 271.66 225.5 270.366 228.287 268.747C 232.996 266.01 233.529 265.952 235.709 267.948M168.973 269.182C 172.69 271.604 174.152 273.465 175.552 277.557C 176.2 279.45 177.225 282.35 177.829 284C 180.113 290.233 179.444 302.672 176.604 306.8C 176.074 307.57 175.449 309.1 175.215 310.2C 174.356 314.24 173.772 315.728 172.527 317.048C 169.064 320.723 168.929 332.727 172.277 339.297C 175.966 346.537 172.122 352.8 163.988 352.8L163.988 352.8L160.296 352.8L157.55 349.948C 155.154 347.46 154.695 346.735 153.962 344.271C 153.499 342.718 152.577 340.484 151.912 339.306C 149.257 334.601 149.399 321.324 152.164 315.838C 152.951 314.277 153.881 311.692 154.231 310.093C 154.733 307.801 155.166 306.869 156.279 305.693C 160.219 301.527 160.329 288.457 156.477 282.2C 153.771 277.803 154.409 272.478 157.91 270.248C 158.73 269.726 159.925 268.808 160.567 268.206C 162.38 266.509 165.409 266.861 168.973 269.182" stroke="none" fill="#DCEBEC" fill-rule="nonzero" />
        <path d="M161.363 272.53C 159.317 274.291 159.744 280.754 162.232 285.664C 165.078 291.279 165.164 298.042 162.444 302.369C 161.811 303.376 160.904 305.398 160.427 306.861C 159.951 308.325 159.012 310.351 158.341 311.363C 154.888 316.577 154.178 332.627 157.029 341.026C 158.16 344.357 161.921 348.742 163.674 348.773C 169.31 348.875 170.322 343.715 166.375 335.009C 164.37 330.588 164.376 323.734 166.387 320.304C 166.807 319.587 167.719 317.425 168.413 315.5C 169.108 313.575 170.111 311.359 170.643 310.575C 174.541 304.83 175.348 286.36 172.001 279.475C 168.608 272.495 164.513 269.821 161.363 272.53M196.038 272.655C 194.035 274.453 193.44 277.311 194.633 279.4C 198.648 286.429 198.137 303.267 193.749 308.524C 193.233 309.143 192.342 311.213 191.769 313.124C 191.195 315.036 190.203 318.179 189.563 320.109C 187.599 326.033 187.821 329.811 190.633 338.396C 192.406 343.805 193.075 345.356 193.873 345.907C 194.426 346.288 195.558 347.185 196.388 347.9C 198.234 349.49 197.828 349.521 200.755 347.566C 204.12 345.32 204.326 343.106 201.619 338.285C 198.631 332.962 198.94 321.413 202.216 316C 202.949 314.79 203.754 312.99 204.006 312C 204.257 311.01 205.144 308.94 205.976 307.4C 209.663 300.578 209.682 286.262 206.012 280.4C 205.392 279.41 204.474 277.362 203.971 275.85C 202.656 271.889 198.676 270.286 196.038 272.655M230.733 272.073C 227.109 273.038 226.562 276.883 229.307 282.088C 233.055 289.193 233.036 299.314 229.263 305.62C 228.414 307.039 227.32 309.528 226.833 311.15C 226.345 312.773 225.495 314.815 224.944 315.689C 221.973 320.395 222.093 335.584 225.135 339.926C 225.549 340.517 226.199 341.951 226.58 343.112C 227.418 345.669 228.783 347.371 230.834 348.418C 233.113 349.58 233.63 349.417 235.548 346.934L235.548 346.934L237.295 344.672L236.644 341.836C 236.285 340.276 235.713 338.01 235.371 336.8C 234.44 333.508 234.21 325.742 234.907 321.18C 235.485 317.401 236.123 315.687 238.394 311.8C 239.037 310.7 239.773 308.9 240.029 307.8C 240.286 306.7 241.059 304.45 241.748 302.8C 243.67 298.195 243.578 290.886 241.522 284.8C 240.742 282.49 239.968 279.97 239.803 279.2C 239.197 276.37 237.036 273.379 234.72 272.166C 233.503 271.528 232.837 271.513 230.733 272.073" stroke="none" fill="#CD5460" fill-rule="nonzero" />
        <path d="M0 82.8L0 165.6L1.104 165.6C 2.746 165.6 3.09 164.705 4.373 157.094C 5.782 148.734 5.937 148.07 6.78 146.8C 7.881 145.141 8.709 142.795 9.569 138.901C 10.018 136.866 10.814 134.346 11.337 133.301C 12.384 131.21 13.679 127.332 14.397 124.142C 14.668 122.935 15.26 121.708 15.826 121.175C 16.358 120.676 17.353 118.812 18.038 117.033C 18.723 115.255 19.906 112.951 20.666 111.913C 21.427 110.875 22.394 108.82 22.815 107.347C 23.237 105.873 24.016 104.011 24.546 103.21C 25.077 102.408 25.903 100.89 26.383 99.837C 26.863 98.784 27.944 97.174 28.786 96.261C 29.628 95.347 30.802 93.575 31.395 92.322C 31.987 91.069 32.871 89.783 33.358 89.464C 33.845 89.145 34.807 87.828 35.494 86.537C 36.182 85.247 37.231 83.743 37.825 83.196C 38.419 82.648 39.413 81.137 40.034 79.838C 40.753 78.333 42.512 76.031 44.881 73.493C 46.927 71.302 48.87 69.11 49.2 68.621C 49.53 68.132 50.52 66.987 51.4 66.076C 52.28 65.166 53.462 63.921 54.027 63.311C 54.591 62.7 55.581 61.744 56.227 61.186C 56.872 60.629 57.959 59.549 58.643 58.786C 59.327 58.024 61.442 55.904 63.343 54.075C 65.244 52.246 66.8 50.614 66.8 50.449C 66.8 50.283 67.475 49.765 68.3 49.297C 69.125 48.83 70.423 47.782 71.185 46.968C 71.947 46.154 73.146 45.248 73.848 44.954C 74.551 44.66 76.267 43.425 77.661 42.209C 79.056 40.993 80.737 39.737 81.398 39.418C 82.059 39.098 83.104 38.296 83.719 37.634C 84.335 36.973 85.99 35.864 87.397 35.172C 88.804 34.479 90.264 33.572 90.64 33.156C 91.016 32.74 91.501 32.4 91.718 32.4C 91.934 32.4 93.301 31.45 94.756 30.289C 98.038 27.669 98.975 27.094 101.025 26.44C 101.918 26.155 103.209 25.433 103.893 24.836C 104.577 24.239 105.916 23.419 106.868 23.014C 109.762 21.783 112.525 20.475 114 19.636C 117.854 17.443 126.412 13.63 128 13.397C 130.737 12.995 133.138 12.205 135.957 10.776C 137.364 10.063 140.261 9.067 142.395 8.563C 144.53 8.059 147.249 7.208 148.438 6.673C 151.333 5.37 153.519 4.925 160.444 4.227C 167.546 3.512 169.6 2.823 169.6 1.157L169.6 1.157L169.6 0L84.8 0L0 0L0 82.8zM232.4 1.185C 232.4 2.218 232.592 2.419 233.9 2.757C 236.411 3.407 242.029 4.317 245.2 4.589C 249.029 4.917 250.573 5.331 255 7.217C 256.98 8.06 259.86 8.964 261.4 9.226C 264.268 9.713 265.875 10.348 267.552 11.655C 268.606 12.476 272.548 13.723 276.112 14.362C 277.459 14.604 278.983 15.204 279.765 15.801C 280.503 16.363 282.596 17.345 284.417 17.982C 286.237 18.62 288.434 19.604 289.298 20.17C 290.162 20.735 292.181 21.664 293.785 22.233C 295.389 22.803 297.371 23.821 298.189 24.495C 299.008 25.17 300.875 26.302 302.339 27.01C 303.802 27.718 305.7 28.86 306.555 29.548C 307.41 30.237 308.276 30.8 308.479 30.8C 308.682 30.8 309.782 31.673 310.924 32.74C 312.066 33.808 314.275 35.418 315.833 36.319C 317.392 37.22 318.91 38.251 319.208 38.61C 319.506 38.969 320.652 39.719 321.754 40.278C 322.857 40.837 324.088 41.713 324.491 42.225C 324.894 42.738 326.263 43.788 327.533 44.559C 330.006 46.062 334.124 50.101 334.55 51.442C 334.692 51.891 335.507 52.65 336.359 53.129C 338.124 54.121 354.253 70.71 356.553 73.9C 357.387 75.055 358.2 76 358.36 76C 358.521 76 359.08 76.761 359.603 77.69C 360.125 78.62 361.132 79.925 361.84 80.59C 362.547 81.256 363.6 82.722 364.179 83.849C 364.757 84.977 365.952 86.687 366.834 87.649C 367.716 88.612 368.79 90.07 369.221 90.889C 369.652 91.708 370.53 92.975 371.171 93.706C 371.812 94.436 372.814 96.226 373.398 97.684C 373.981 99.142 375.166 101.282 376.029 102.439C 376.893 103.597 377.6 104.792 377.6 105.095C 377.6 105.773 379.42 109.11 380.384 110.2C 380.773 110.64 381.431 111.799 381.846 112.776C 382.261 113.753 383.013 115.283 383.517 116.176C 385.517 119.72 386.771 122.789 387.036 124.79C 387.224 126.203 387.771 127.563 388.707 128.945C 390.314 131.318 390.608 132.163 391.433 136.8C 391.823 138.995 392.477 140.979 393.278 142.398C 394.639 144.811 395.564 148.106 395.586 150.62C 395.625 155.135 397.434 160.599 398.988 160.896L398.988 160.896L400 161.089L400 80.545L400 0L316.2 0L232.4 0L232.4 1.185zM0 316.92L0 400L79.4 400L158.8 400L158.8 398.896C 158.8 397.382 157.874 396.91 153.507 396.2C 146.642 395.084 143.442 394.302 140.389 392.995C 138.719 392.28 135.918 391.333 134.166 390.89C 132.414 390.447 129.815 389.454 128.39 388.683C 126.966 387.913 124.005 386.707 121.81 386.004C 119.616 385.302 117.366 384.408 116.81 384.018C 116.255 383.628 115.08 383.066 114.2 382.769C 113.32 382.473 111.356 381.443 109.836 380.482C 108.316 379.52 106.113 378.309 104.941 377.791C 103.769 377.273 102.223 376.403 101.505 375.859C 100.787 375.315 98.94 374.276 97.4 373.552C 95.86 372.827 94.491 372.078 94.358 371.887C 93.917 371.255 87.457 366.872 83.883 364.78C 81.949 363.647 80.095 362.306 79.762 361.798C 79.43 361.291 78.736 360.77 78.22 360.641C 77.166 360.376 70.944 354.97 66.4 350.37C 64.75 348.7 62.5 346.69 61.4 345.904C 59.112 344.27 56.09 341.184 53.885 338.23C 53.051 337.113 50.666 334.468 48.585 332.351C 46.503 330.234 44.8 328.341 44.8 328.145C 44.8 327.948 43.887 326.8 42.772 325.593C 41.657 324.387 40.397 322.732 39.972 321.916C 39.548 321.1 38.768 320.02 38.239 319.516C 37.71 319.012 36.943 317.963 36.534 317.183C 36.125 316.404 35.151 314.964 34.371 313.983C 33.59 313.003 32.602 311.392 32.176 310.406C 31.749 309.419 30.461 307.37 29.313 305.853C 28.165 304.336 26.917 302.263 26.54 301.247C 26.162 300.231 25.323 298.715 24.675 297.877C 24.027 297.04 22.965 294.986 22.316 293.313C 21.666 291.641 20.633 289.626 20.019 288.836C 19.405 288.046 18.351 286.05 17.676 284.4C 17.001 282.75 15.911 280.32 15.254 279C 14.596 277.68 13.599 275.07 13.038 273.2C 12.476 271.33 11.317 267.73 10.462 265.2C 9.607 262.67 8.794 259.993 8.654 259.251C 8.514 258.508 7.747 256.455 6.949 254.687C 6.01 252.607 5.38 250.47 5.164 248.636C 4.409 242.219 2.505 234.8 1.613 234.8C 1.254 234.8 0.744 234.584 0.48 234.32C 0.107 233.947 0 252.302 0 316.92M398.557 243.613C 397.327 244.078 396.474 246.615 395.599 252.404C 394.945 256.736 394.576 258.013 393.203 260.699C 392.197 262.668 391.377 264.999 391.044 266.837C 390.543 269.601 389.93 271.193 387.951 274.875C 387.515 275.687 386.821 277.528 386.409 278.968C 385.998 280.407 385.119 282.353 384.457 283.292C 383.795 284.231 383.053 285.768 382.809 286.708C 382.079 289.517 380.823 292.125 379.579 293.416C 378.934 294.084 377.966 295.755 377.428 297.129C 376.89 298.502 375.978 300.186 375.402 300.87C 374.827 301.554 373.892 303.033 373.325 304.157C 372.758 305.281 371.778 306.792 371.146 307.515C 370.515 308.238 369.559 309.697 369.021 310.758C 368.484 311.818 367.606 313.207 367.071 313.843C 366.536 314.479 365.497 316.146 364.763 317.547C 364.029 318.948 363.025 320.358 362.532 320.681C 362.039 321.004 361.179 322.048 360.621 323.001C 360.062 323.953 359.106 325.243 358.495 325.866C 357.885 326.49 356.367 328.363 355.123 330.03C 353.001 332.872 347.477 338.693 342.983 342.822C 341.892 343.824 339.56 346.137 337.8 347.963C 333.354 352.574 332.505 353.347 330.025 355.035C 328.829 355.849 327.453 356.985 326.967 357.558C 326.481 358.131 325.029 359.229 323.741 359.997C 322.454 360.765 321.102 361.763 320.737 362.213C 320.372 362.664 319.112 363.55 317.937 364.181C 316.762 364.812 315.153 365.904 314.362 366.608C 313.571 367.311 311.771 368.658 310.362 369.6C 308.953 370.543 307.44 371.634 307 372.025C 306.56 372.416 305.39 373.048 304.4 373.428C 303.41 373.809 301.7 374.782 300.6 375.591C 299.5 376.4 297.43 377.566 296 378.183C 294.57 378.799 293.13 379.524 292.8 379.794C 291.613 380.763 279.148 386.799 278.329 386.801C 278.038 386.802 276.563 387.425 275.051 388.187C 271.546 389.953 268.536 390.99 263.954 392.01C 261.945 392.458 259.559 393.258 258.651 393.788C 256.492 395.049 251.803 396.27 247.8 396.613C 243.616 396.971 241.6 397.761 241.6 399.043L241.6 399.043L241.6 400L320.8 400L400 400L400 321.824C 400 278.827 399.865 243.568 399.7 243.471C 399.535 243.373 399.021 243.438 398.557 243.613" stroke="none" fill="#FBFBFB" fill-rule="nonzero" />
        <path d="M197.771 49.213C 195.391 49.408 193.587 49.794 192.529 50.334C 191.642 50.787 189.315 51.546 187.358 52.021C 183.003 53.078 181.437 53.778 180.614 55.034C 180.266 55.566 179.761 56.002 179.491 56.004C 178.364 56.013 174.5 58.16 173.007 59.607C 165.409 66.972 162.841 70.19 162.809 72.391C 162.804 72.716 162.11 73.616 161.267 74.391C 159.975 75.578 159.592 76.335 158.829 79.2C 158.277 81.278 157.557 82.991 156.978 83.606C 155.584 85.086 154.888 87.461 154.186 93.131C 153.841 95.919 153.122 99.595 152.588 101.299C 151.247 105.577 150.886 109.561 150.621 123C 150.291 139.722 149.983 141.993 147.492 146.053C 147.001 146.853 146.256 148.959 145.836 150.735C 145.291 153.033 144.741 154.325 143.923 155.22C 142.668 156.594 141.067 159.567 140.651 161.295C 140.471 162.042 139.871 162.654 138.763 163.219C 137.704 163.759 136.946 164.509 136.585 165.375C 136.279 166.106 135.403 167.073 134.636 167.526C 133.87 167.978 132.869 169.08 132.413 169.975C 131.869 171.042 131.074 171.842 130.105 172.301C 129.293 172.685 128.207 173.63 127.693 174.4C 127.179 175.17 126.059 176.103 125.203 176.473C 124.31 176.86 123.392 177.641 123.048 178.308C 122.717 178.947 121.833 179.938 121.082 180.51C 120.331 181.083 119.489 182.147 119.21 182.876C 118.931 183.604 117.915 184.92 116.952 185.8C 115.388 187.23 115.112 187.762 114.359 190.8C 113.85 192.852 113.156 194.596 112.607 195.2C 111.094 196.864 110.838 197.717 110.367 202.655C 109.499 211.744 110.42 221.615 112.445 224.925C 113.093 225.983 113.896 228.053 114.23 229.525C 115.137 233.52 115.136 233.517 117.139 235.775C 118.163 236.928 119.311 238.449 119.692 239.154C 120.075 239.864 120.903 240.617 121.55 240.842C 122.191 241.066 123.459 242.13 124.367 243.207C 125.718 244.809 126.435 245.285 128.309 245.825C 131.134 246.639 132.7 247.347 134 248.397C 136.037 250.043 147.488 250.506 150.292 249.056C 150.93 248.726 151.968 247.712 152.597 246.804C 153.227 245.895 154.079 244.972 154.49 244.752C 156.599 243.623 156.162 238.818 153.723 236.321C 151.958 234.514 150.862 234.136 146.4 233.796C 142.12 233.47 140.316 233.012 139.423 232.026C 139.036 231.598 137.905 230.97 136.911 230.632C 135.293 230.08 130.416 225.772 130.393 224.875C 130.354 223.349 128.965 218.581 127.954 216.506C 125.857 212.201 126.066 204.737 128.365 201.843C 128.995 201.051 129.636 199.727 129.79 198.901C 130.283 196.252 131.548 193.839 132.827 193.108C 133.532 192.705 134.356 191.697 134.798 190.698C 135.376 189.391 135.978 188.776 137.316 188.125C 138.5 187.551 139.291 186.816 139.736 185.879C 140.133 185.042 140.783 184.391 141.368 184.244C 141.902 184.11 142.758 183.447 143.27 182.771C 143.781 182.095 144.56 181.198 145 180.777C 150.571 175.448 152.823 173.05 153.03 172.224C 153.167 171.679 153.87 170.884 154.594 170.457C 155.565 169.884 156.086 169.148 156.585 167.644C 157.008 166.372 157.755 165.193 158.576 164.504C 160.238 163.108 160.761 162.095 161.195 159.434C 161.799 155.72 162.393 154.057 163.578 152.76C 165.133 151.057 165.516 149.259 166.013 141.343C 166.246 137.634 166.706 132.08 167.036 129C 167.366 125.92 167.795 121.24 167.989 118.6C 168.183 115.96 168.54 112.63 168.783 111.2C 169.026 109.77 169.56 105.355 169.97 101.39C 170.711 94.214 171.178 92.392 172.785 90.4C 173.229 89.85 174.042 87.87 174.592 86C 175.342 83.451 175.888 82.347 176.777 81.587C 177.428 81.03 178.285 79.855 178.681 78.976C 179.572 76.994 183.577 72.936 185.387 72.18C 186.127 71.87 187.121 71.073 187.594 70.408C 190.473 66.365 209.177 66.156 213.562 70.118C 214.387 70.864 216.092 71.978 217.35 72.593C 218.882 73.342 219.85 74.123 220.28 74.956C 220.633 75.64 221.87 77.318 223.028 78.684C 224.434 80.342 225.339 81.872 225.751 83.29C 226.148 84.656 226.862 85.891 227.756 86.758C 229.182 88.139 229.724 89.692 230.214 93.8C 230.715 97.991 231.309 100.269 232.424 102.273C 233.878 104.889 233.965 105.96 234.38 126.4C 234.724 143.375 234.907 144.878 237.006 148C 237.637 148.938 238.229 150.917 238.802 154C 239.673 158.695 240.238 160.04 241.874 161.329C 242.383 161.73 242.802 162.36 242.804 162.729C 242.81 163.82 244.601 167.345 245.901 168.826C 246.564 169.582 247.388 170.874 247.731 171.697C 248.148 172.694 248.949 173.551 250.132 174.266C 251.306 174.975 252.138 175.862 252.59 176.887C 253.088 178.015 253.68 178.598 254.767 179.033C 255.858 179.47 256.445 180.052 256.951 181.197C 257.459 182.349 258.017 182.899 259.061 183.277C 260.039 183.63 260.719 184.257 261.246 185.29C 261.731 186.241 262.603 187.092 263.632 187.616C 264.524 188.071 265.626 189.077 266.084 189.853C 266.542 190.629 267.586 191.686 268.403 192.202C 269.546 192.924 269.991 193.542 270.328 194.879C 270.581 195.885 271.282 197.112 271.992 197.792C 274.923 200.6 275.562 218.181 272.855 221.51C 272.367 222.11 271.261 224.054 270.397 225.832L270.397 225.832L268.825 229.064L266.05 230.153C 264.524 230.751 262.493 231.749 261.537 232.37C 260.03 233.349 259.272 233.531 255.8 233.749C 248.656 234.197 247.707 234.833 247.208 239.51C 246.602 245.189 248.929 248.812 253.698 249.617C 258.972 250.506 266.402 249.658 268.621 247.912C 269.234 247.43 271.099 246.559 272.767 245.977C 275.231 245.117 275.976 244.653 276.739 243.502C 277.256 242.723 278.35 241.783 279.17 241.413C 279.991 241.043 280.989 240.169 281.388 239.47C 281.787 238.772 282.793 237.57 283.624 236.8C 284.734 235.771 285.368 234.674 286.013 232.663C 286.495 231.157 287.389 229.357 287.999 228.663C 289.666 226.764 289.999 224.976 290.398 215.8C 291.017 201.584 290.211 193.922 287.82 191.275C 287.085 190.461 286.282 189.046 286.035 188.13C 285.463 186.006 280.248 179.544 276.764 176.642C 275.354 175.467 272.341 172.682 270.069 170.453C 267.797 168.224 265.81 166.4 265.654 166.4C 265.497 166.4 264.606 165.238 263.672 163.818C 262.739 162.398 261.442 160.857 260.792 160.394C 259.943 159.79 259.424 158.907 258.956 157.276C 258.597 156.024 257.698 154.252 256.957 153.338C 255.233 151.212 254.954 150.44 254.206 145.704C 253.78 143.01 253.203 141.056 252.343 139.4C 250.759 136.352 250.526 133.759 250.038 113.8C 249.661 98.346 249.443 96.452 247.639 92.944C 247.203 92.095 246.556 89.78 246.203 87.8C 245.429 83.465 244.282 80.405 242.971 79.172C 242.437 78.671 242 78.029 242 77.745C 242 76.187 240.149 72.536 238.663 71.164C 237.692 70.268 236.86 69.043 236.606 68.138C 236.321 67.121 235.719 66.309 234.79 65.684C 234.025 65.17 233.075 64.121 232.678 63.351C 232.179 62.383 231.408 61.718 230.172 61.188C 229.04 60.703 228.098 59.933 227.598 59.087C 227.053 58.163 226.162 57.482 224.705 56.877C 223.547 56.396 222.06 55.535 221.4 54.964C 219.539 53.353 218.307 52.845 214.207 52.001C 212.116 51.571 209.693 50.855 208.821 50.411C 207.541 49.758 202.425 48.663 201.6 48.865C 201.49 48.892 199.767 49.048 197.771 49.213M211.748 54.17C 213.26 54.505 215.33 55.304 216.348 55.946C 217.367 56.589 218.65 57.244 219.2 57.402C 220.896 57.889 224.139 59.881 225.4 61.209C 226.06 61.905 227.26 62.813 228.066 63.228C 228.873 63.642 229.94 64.571 230.439 65.291C 230.937 66.011 231.938 67.105 232.663 67.722C 233.388 68.338 234.32 69.598 234.733 70.522C 235.147 71.445 236.301 73.28 237.298 74.6C 238.507 76.201 239.398 77.966 239.973 79.901C 240.447 81.497 241.383 83.685 242.053 84.763C 243.058 86.379 243.475 87.87 244.429 93.261C 245.065 96.858 245.951 101.51 246.397 103.6C 247.022 106.528 247.297 110.016 247.597 118.8C 248.185 136.056 248.976 142.826 250.829 146.456C 251.318 147.415 252.243 149.82 252.884 151.8C 253.525 153.78 254.468 155.85 254.979 156.4C 255.491 156.95 256.481 158.565 257.178 159.988C 258.928 163.557 260.696 165.495 274.363 178.816C 277.194 181.575 279.857 184.402 280.281 185.1C 280.705 185.798 281.522 186.738 282.096 187.189C 282.698 187.663 283.423 188.896 283.812 190.105C 284.182 191.257 285.175 193.73 286.019 195.6C 289.253 202.763 289.137 219.55 285.813 225.387C 285.308 226.274 284.498 228.34 284.012 229.978C 283.368 232.153 282.775 233.287 281.818 234.178C 281.097 234.85 280.033 236.161 279.454 237.092C 278.865 238.038 277.739 239.123 276.9 239.553C 276.075 239.976 274.95 240.807 274.4 241.399C 271.04 245.017 257.787 247.544 253.111 245.458C 249.902 244.026 249.432 243.313 249.743 240.346C 250.121 236.724 251.401 236.008 257.52 235.994C 261.224 235.985 264.562 235.123 266.325 233.719C 267.136 233.074 268.398 232.198 269.13 231.773C 269.861 231.348 271.071 230.01 271.819 228.8C 272.567 227.59 273.601 226.207 274.118 225.727C 277.623 222.468 277.906 200.718 274.505 195.885C 273.897 195.02 273.003 193.658 272.517 192.857C 271.61 191.361 271.113 190.848 258.278 178.139C 252.683 172.599 250.462 170.117 249.604 168.446C 248.971 167.211 247.815 165.498 247.037 164.64C 246.259 163.782 245.418 162.432 245.169 161.64C 244.919 160.848 243.921 158.711 242.951 156.891C 241.455 154.087 241.062 152.838 240.368 148.691C 239.918 146.001 239.107 142.81 238.566 141.6C 237.03 138.166 236.82 136.031 236.415 119.8C 235.956 101.36 235.623 98.365 233.584 94.369C 233.169 93.556 232.435 91.317 231.953 89.393C 231.38 87.107 230.594 85.186 229.686 83.848C 228.922 82.721 227.802 80.72 227.199 79.4C 226.596 78.08 225.61 76.55 225.009 76C 224.407 75.45 223.386 74.235 222.739 73.301C 222.092 72.366 220.986 71.307 220.281 70.947C 219.577 70.587 218.249 69.607 217.332 68.768C 216.144 67.682 214.82 66.989 212.732 66.364C 211.119 65.88 208.9 65.031 207.8 64.476C 204.273 62.696 198.359 62.708 193.775 64.505C 191.809 65.275 189.344 66.212 188.297 66.587C 187.25 66.962 185.702 67.838 184.857 68.534C 184.011 69.23 182.503 70.367 181.504 71.06C 179.398 72.523 173.767 79.831 172.937 82.181C 172.63 83.05 171.737 84.909 170.952 86.312C 169.854 88.276 169.265 90.143 168.396 94.419C 167.775 97.475 166.908 100.934 166.47 102.104C 165.26 105.338 164.806 110.486 164.399 125.6C 163.972 141.414 163.714 143.655 161.802 148.14C 161.038 149.933 160.035 153.02 159.573 155C 159.111 156.98 158.402 158.96 157.998 159.4C 157.594 159.84 156.507 161.538 155.583 163.173C 154.66 164.808 153.237 166.988 152.423 168.019C 151.608 169.05 150.713 170.444 150.434 171.117C 150.155 171.791 149.223 172.808 148.363 173.377C 147.504 173.946 146.8 174.586 146.8 174.8C 146.8 175.18 141.992 179.98 137.6 183.984C 132.377 188.746 129.671 191.845 128.567 194.327C 128.046 195.497 127.097 197.229 126.458 198.176C 124.431 201.179 124.204 202.388 124.276 209.8C 124.38 220.576 127.116 227.326 133.27 231.988C 137.831 235.444 138.526 235.691 144.496 235.974C 150.518 236.259 151.097 236.59 151.645 240.058C 152.611 246.171 147.359 247.904 136.2 245.155C 128.558 243.273 123.038 239.497 119.892 234C 119.2 232.79 118.239 231.217 117.758 230.505C 117.276 229.792 116.666 228.262 116.402 227.105C 116.138 225.947 115.356 222.75 114.664 220C 112.807 212.615 112.821 205.233 114.704 199.356C 115.417 197.131 116 195.113 116 194.871C 116 193.832 117.702 190.009 118.635 188.951C 119.193 188.318 120.09 186.948 120.628 185.907C 121.166 184.866 122.037 183.732 122.563 183.387C 123.089 183.043 123.99 182.051 124.564 181.183C 125.138 180.315 126.326 179.152 127.203 178.598C 128.081 178.044 129.191 176.992 129.671 176.26C 130.151 175.528 131.18 174.585 131.959 174.165C 132.738 173.744 133.797 172.772 134.312 172.005C 134.826 171.238 135.771 170.28 136.41 169.875C 137.05 169.47 137.956 168.519 138.424 167.761C 138.893 167.003 139.901 165.906 140.664 165.324C 141.428 164.741 142.42 163.53 142.869 162.632C 143.318 161.735 144.274 160.37 144.995 159.6C 145.715 158.83 146.697 157.12 147.178 155.8C 147.658 154.48 148.569 152.476 149.202 151.347C 151.654 146.975 154.272 131.351 154.808 117.896C 155.546 99.35 156.36 93.045 158.579 88.675C 159.117 87.617 159.852 85.422 160.213 83.799C 160.611 82.011 161.402 80.011 162.222 78.724C 162.966 77.556 164.108 75.486 164.76 74.124C 167.333 68.748 175.409 60.907 181.2 58.163C 182.85 57.381 185.06 56.192 186.112 55.521C 189.624 53.281 204.246 52.51 211.748 54.17M140.962 213.325C 137.592 214.946 136.04 218.914 137.157 223.048C 138.201 226.908 139.965 227.863 147.054 228.404C 151.728 228.761 152.32 228.902 155.384 230.392C 157.199 231.275 159.295 232.103 160.042 232.232C 162.329 232.629 163.469 233.208 164.032 234.26C 164.328 234.813 165.387 235.734 166.385 236.306C 167.383 236.879 168.92 237.995 169.8 238.787C 170.68 239.579 172.3 240.839 173.4 241.586C 174.5 242.333 175.786 243.351 176.259 243.848C 177.007 244.636 180.289 245.841 183.669 246.569C 184.257 246.696 185.27 247.247 185.919 247.793C 189.426 250.744 211.336 250.744 216.011 247.793C 216.894 247.235 218.738 246.497 220.109 246.153C 222.71 245.5 225.479 244.11 226.407 242.992C 226.705 242.632 227.805 241.904 228.85 241.375C 229.895 240.845 231.251 239.756 231.862 238.954C 232.473 238.153 233.715 237.179 234.621 236.791C 235.753 236.306 236.473 235.653 236.923 234.706C 237.527 233.434 237.842 233.257 241.009 232.421C 242.951 231.908 244.929 231.103 245.565 230.568C 247.338 229.076 248.646 228.748 254.245 228.391C 262.151 227.887 263.417 227.081 263.867 222.266C 264.214 218.543 263.423 215.058 261.947 213.817C 259.054 211.383 241.013 212.134 238.61 214.789C 238.214 215.227 236.383 216.045 234.542 216.606C 231.977 217.389 230.907 217.943 229.965 218.978C 229.289 219.721 228.255 220.447 227.668 220.59C 226.381 220.904 224.662 222.241 220.59 226.095C 217.046 229.45 216.568 229.742 213.603 230.369C 212.395 230.624 210.236 231.476 208.806 232.263L208.806 232.263L206.205 233.692L200.203 233.525C 194.594 233.37 194.095 233.292 192.6 232.335C 191.72 231.772 189.487 230.882 187.637 230.356C 184.802 229.55 184.16 229.208 183.543 228.177C 183.141 227.504 182.18 226.652 181.407 226.284C 180.635 225.916 179.507 224.898 178.901 224.023C 178.2 223.01 176.855 221.915 175.2 221.009C 173.77 220.226 171.963 219.048 171.184 218.391C 170.354 217.691 168.655 216.887 167.082 216.451C 165.605 216.042 163.707 215.228 162.864 214.644C 159.522 212.329 144.867 211.446 140.962 213.325M258.631 215.595C 262.544 217.272 262.784 223.134 259.015 224.974C 257.893 225.521 256.021 225.845 252.615 226.08C 245.871 226.545 244.009 226.996 241.334 228.811C 240.068 229.67 238.523 230.485 237.9 230.622C 237.277 230.759 235.883 231.755 234.803 232.835C 233.722 233.916 232.687 234.8 232.502 234.8C 232.317 234.8 231.093 235.714 229.783 236.832C 228.472 237.949 226.5 239.323 225.4 239.884C 224.3 240.446 222.817 241.414 222.105 242.036C 221.393 242.658 220.133 243.332 219.305 243.535C 203.215 247.478 198.978 247.69 188.6 245.077C 182.009 243.417 181.025 243.066 179.32 241.766C 178.614 241.228 177.233 240.443 176.251 240.022C 175.269 239.601 174.054 238.699 173.55 238.018C 173.046 237.336 171.906 236.348 171.017 235.822C 170.128 235.295 168.41 234.012 167.2 232.971C 165.99 231.929 164.19 230.694 163.2 230.226C 162.21 229.758 160.68 228.904 159.8 228.327C 157.946 227.112 154.856 226.513 148.57 226.147C 143.485 225.851 142.477 225.413 140.778 222.766C 139.177 220.27 139.273 219.761 141.859 217.046L141.859 217.046L144.1 214.693L148.55 214.912C 152.125 215.089 153.708 215.379 156.6 216.386C 158.58 217.076 161.724 218.007 163.588 218.456C 165.949 219.024 167.453 219.65 168.553 220.521C 169.42 221.208 171.013 222.179 172.092 222.679C 173.221 223.202 175.544 225.022 177.571 226.972C 180.061 229.367 181.917 230.759 183.922 231.735C 185.481 232.494 187.3 233.502 187.965 233.975C 191.851 236.742 208.931 236.816 213.6 234.086C 214.59 233.507 216.593 232.459 218.051 231.756C 219.999 230.817 221.725 229.468 224.561 226.669C 226.999 224.263 228.851 222.765 229.587 222.603C 230.229 222.462 231.51 221.798 232.435 221.128C 234.499 219.633 236.072 218.959 240.2 217.799C 241.96 217.305 244.375 216.508 245.566 216.03C 249.502 214.448 255.489 214.249 258.631 215.595" stroke="none" fill="#9DBAC8" fill-rule="nonzero" />
        <path d="M194.974 270.9C 191.046 273.565 190.246 277.176 192.728 281.033C 196.086 286.251 196.507 301.118 193.416 305.325C 193.063 305.806 192.347 306.785 191.827 307.5C 191.306 308.215 190.662 309.745 190.395 310.9C 190.129 312.055 189.292 314.393 188.535 316.095C 185.695 322.486 185.594 333.436 188.327 338.8C 188.944 340.01 189.792 342.17 190.213 343.6C 191.637 348.438 196.464 352.059 199.951 350.904C 205.678 349.008 206.731 343.531 202.886 335.647C 201.404 332.608 201.4 332.587 201.4 327.4L201.4 327.4L201.4 322.2L203.052 319.2C 203.961 317.55 205.021 315.21 205.408 314C 205.795 312.79 206.799 310.538 207.639 308.996C 211.401 302.091 211.346 284.238 207.545 278.315C 206.843 277.221 205.787 275.307 205.198 274.063C 203.89 271.3 203.422 270.893 200.723 270.174C 197.7 269.37 197.122 269.443 194.974 270.9M230.322 270.159C 225.371 271.493 224.321 279.08 228.284 284.896C 231.057 288.966 231.127 298.862 228.409 302.647C 227.746 303.57 226.643 305.917 225.958 307.863C 225.272 309.808 224.288 312.124 223.771 313.009C 221.969 316.093 221.428 319.506 221.429 327.8C 221.429 336.854 221.752 338.378 225.007 344.673C 228.845 352.094 232.606 353.481 236.893 349.057C 240.383 345.455 240.616 343.303 238.016 338.685C 235.385 334.011 235.502 319.341 238.194 316.4C 239.268 315.226 240.101 313.621 240.788 311.4C 241.06 310.52 241.979 308.265 242.83 306.389C 246.034 299.323 245.944 288.216 242.623 280.8C 241.884 279.15 240.981 276.955 240.616 275.923C 238.934 271.17 234.919 268.922 230.322 270.159M159.874 271.305C 157.863 273.201 156.95 277.239 158.062 279.316C 158.317 279.792 159.045 282.254 159.681 284.788C 160.316 287.323 161.072 289.757 161.361 290.198C 162.368 291.74 162.504 295.205 161.658 297.809C 159.87 303.309 158.436 306.905 157.471 308.308C 156.13 310.258 155.898 310.918 154.183 317.684C 151.974 326.398 151.952 328.71 154.001 337C 155.973 344.979 155.791 344.579 159.147 348.34L159.147 348.34L161.77 351.281L164.472 351.128C 167.726 350.944 169.198 349.818 170.225 346.724C 171.131 343.999 169.982 336.831 167.994 332.8C 166.198 329.159 168.299 318.298 171.784 313.206C 174.404 309.377 176.919 299.582 176.697 294.074C 176.392 286.544 173.798 276.587 171.63 274.626C 171.159 274.201 170.393 273.235 169.926 272.48C 168.163 269.627 162.371 268.949 159.874 271.305M167.379 272.58C 168.228 273.114 170.705 276.809 172.001 279.475C 175.348 286.36 174.541 304.83 170.643 310.575C 170.111 311.359 169.108 313.575 168.413 315.5C 167.719 317.425 166.807 319.587 166.387 320.304C 164.376 323.734 164.37 330.588 166.375 335.009C 170.322 343.715 169.31 348.875 163.674 348.773C 155.957 348.634 152.007 320.925 158.341 311.363C 159.012 310.351 159.951 308.325 160.427 306.861C 160.904 305.398 161.811 303.376 162.444 302.369C 165.164 298.042 165.078 291.279 162.232 285.664C 157.666 276.653 160.876 268.493 167.379 272.58M201.629 272.501C 202.893 273.031 203.164 273.417 203.971 275.85C 204.474 277.362 205.392 279.41 206.012 280.4C 209.682 286.262 209.663 300.578 205.976 307.4C 205.144 308.94 204.257 311.01 204.006 312C 203.754 312.99 202.949 314.79 202.216 316C 198.94 321.413 198.631 332.962 201.619 338.285C 204.326 343.106 204.12 345.32 200.755 347.566C 197.828 349.521 198.234 349.49 196.388 347.9C 195.558 347.185 194.426 346.288 193.873 345.907C 193.075 345.356 192.406 343.805 190.633 338.396C 187.821 329.811 187.599 326.033 189.563 320.109C 190.203 318.179 191.195 315.036 191.769 313.124C 192.342 311.213 193.233 309.143 193.749 308.524C 198.137 303.267 198.648 286.429 194.633 279.4C 191.98 274.755 196.463 270.334 201.629 272.501M234.72 272.166C 237.036 273.379 239.197 276.37 239.803 279.2C 239.968 279.97 240.742 282.49 241.522 284.8C 243.578 290.886 243.67 298.195 241.748 302.8C 241.059 304.45 240.286 306.7 240.029 307.8C 239.773 308.9 239.037 310.7 238.394 311.8C 236.123 315.687 235.485 317.401 234.907 321.18C 234.21 325.742 234.44 333.508 235.371 336.8C 235.713 338.01 236.285 340.276 236.644 341.836L236.644 341.836L237.295 344.672L235.548 346.934C 233.63 349.417 233.113 349.58 230.834 348.418C 228.783 347.371 227.418 345.669 226.58 343.112C 226.199 341.951 225.549 340.517 225.135 339.926C 222.093 335.584 221.973 320.395 224.944 315.689C 225.495 314.815 226.345 312.773 226.833 311.15C 227.32 309.528 228.414 307.039 229.263 305.62C 233.036 299.314 233.055 289.193 229.307 282.088C 226.562 276.883 227.109 273.038 230.733 272.073C 232.837 271.513 233.503 271.528 234.72 272.166" stroke="none" fill="#E49CA4" fill-rule="nonzero" />
        <path d="M195.701 267.747C 194.876 268.488 193.421 269.489 192.47 269.971C 188.36 272.052 188.562 281.204 192.833 286.457C 194.687 288.738 194.396 299.859 192.422 302.122C 190.997 303.756 189.743 306.232 189.391 308.106C 189.24 308.913 188.658 310.068 188.097 310.673C 184.274 314.798 184.036 338.693 187.768 343.767C 188.267 344.445 189.085 346.037 189.586 347.305C 192.239 354.019 202.94 355.318 205.737 349.266C 207.376 345.72 206.586 336.845 204.2 332C 202.666 328.886 202.634 327.276 204.041 323.938C 204.722 322.322 205.692 319.519 206.196 317.709C 206.715 315.85 207.555 313.894 208.127 313.214C 209.199 311.939 209.966 309.68 210.968 304.845C 211.304 303.22 211.84 301.493 212.158 301.008C 213.79 298.517 213.798 291.824 212.174 287.2C 211.672 285.77 210.965 282.99 210.603 281.022C 209.835 276.846 209.536 276.174 207.791 274.709C 206.979 274.027 206.395 273.097 206.231 272.226C 205.992 270.952 204.432 269.2 203.536 269.2C 203.341 269.2 202.265 268.57 201.145 267.8C 198.607 266.054 197.599 266.044 195.701 267.747M231.8 266.932C 229.099 267.991 225.95 270.137 225.326 271.343C 223.481 274.91 224.995 285.542 228.068 290.6C 228.957 292.063 229.031 295.193 228.215 296.772C 227.624 297.914 227.142 299.169 225.4 304.102C 224.875 305.589 223.81 307.839 223.032 309.102C 220.733 312.839 218.892 325.539 219.762 331.662C 220.086 333.938 220.553 337.407 220.8 339.371C 221.318 343.496 221.835 344.926 223.496 346.829C 224.154 347.583 225.078 348.961 225.55 349.892C 228.034 354.79 238.018 353.854 240.656 348.474C 242.146 345.437 241.538 338.868 239.559 336.614C 237.877 334.698 237.6 333.366 237.6 327.182L237.6 327.182L237.6 321.759L239.263 319.199C 240.178 317.791 241.171 315.826 241.471 314.832C 241.77 313.837 242.718 311.848 243.577 310.412C 247.595 303.697 247.822 283.879 243.951 277.794C 243.254 276.697 242.197 274.72 241.603 273.4C 240.44 270.815 239.95 270.263 238.4 269.797C 237.85 269.631 236.639 268.799 235.709 267.948C 233.889 266.282 233.628 266.214 231.8 266.932M160.567 268.206C 159.925 268.808 158.73 269.726 157.91 270.248C 154.409 272.478 153.771 277.803 156.477 282.2C 160.329 288.457 160.219 301.527 156.279 305.693C 155.166 306.869 154.733 307.801 154.231 310.093C 153.881 311.692 152.951 314.277 152.164 315.838C 149.399 321.324 149.257 334.601 151.912 339.306C 152.577 340.484 153.499 342.718 153.962 344.271C 154.695 346.735 155.154 347.46 157.55 349.948L157.55 349.948L160.296 352.8L163.988 352.8C 172.122 352.8 175.966 346.537 172.277 339.297C 168.929 332.727 169.064 320.723 172.527 317.048C 173.772 315.728 174.356 314.24 175.215 310.2C 175.449 309.1 176.074 307.57 176.604 306.8C 179.444 302.672 180.113 290.233 177.829 284C 177.225 282.35 176.2 279.45 175.552 277.557C 172.986 270.057 164.347 264.667 160.567 268.206M200.723 270.174C 203.422 270.893 203.89 271.3 205.198 274.063C 205.787 275.307 206.843 277.221 207.545 278.315C 211.346 284.238 211.401 302.091 207.639 308.996C 206.799 310.538 205.795 312.79 205.408 314C 205.021 315.21 203.961 317.55 203.052 319.2L203.052 319.2L201.4 322.2L201.4 327.4C 201.4 332.587 201.404 332.608 202.886 335.647C 206.731 343.531 205.678 349.008 199.951 350.904C 196.464 352.059 191.637 348.438 190.213 343.6C 189.792 342.17 188.944 340.01 188.327 338.8C 185.594 333.436 185.695 322.486 188.535 316.095C 189.292 314.393 190.129 312.055 190.395 310.9C 190.662 309.745 191.306 308.215 191.827 307.5C 192.347 306.785 193.063 305.806 193.416 305.325C 196.507 301.118 196.086 286.251 192.728 281.033C 188.89 275.07 193.843 268.343 200.723 270.174M236.259 270.788C 238.701 272.189 239.719 273.388 240.616 275.923C 240.981 276.955 241.884 279.15 242.623 280.8C 245.944 288.216 246.034 299.323 242.83 306.389C 241.979 308.265 241.06 310.52 240.788 311.4C 240.101 313.621 239.268 315.226 238.194 316.4C 235.502 319.341 235.385 334.011 238.016 338.685C 240.616 343.303 240.383 345.455 236.893 349.057C 229.641 356.542 221.43 345.254 221.429 327.8C 221.428 319.506 221.969 316.093 223.771 313.009C 224.288 312.124 225.272 309.808 225.958 307.863C 226.643 305.917 227.746 303.57 228.409 302.647C 231.127 298.862 231.057 288.966 228.284 284.896C 224.321 279.08 225.371 271.493 230.322 270.159C 233.134 269.403 234.003 269.495 236.259 270.788M167.752 270.554C 168.481 270.859 169.46 271.726 169.926 272.48C 170.393 273.235 171.159 274.201 171.63 274.626C 173.798 276.587 176.392 286.544 176.697 294.074C 176.919 299.582 174.404 309.377 171.784 313.206C 168.299 318.298 166.198 329.159 167.994 332.8C 172.621 342.182 170.972 350.761 164.472 351.128L164.472 351.128L161.77 351.281L159.147 348.34C 155.791 344.579 155.973 344.979 154.001 337C 151.952 328.71 151.974 326.398 154.183 317.684C 155.898 310.918 156.13 310.258 157.471 308.308C 158.436 306.905 159.87 303.309 161.658 297.809C 162.504 295.205 162.368 291.74 161.361 290.198C 161.072 289.757 160.316 287.323 159.681 284.788C 159.045 282.254 158.317 279.792 158.062 279.316C 155.154 273.882 161.652 268.005 167.752 270.554" stroke="none" fill="#ECBCC4" fill-rule="nonzero" />
	</g>
</g>
</svg>